<?xml version="1.0" encoding="UTF-8"?>
<!DOCTYPE svg PUBLIC "-//W3C//DTD SVG 1.1//EN" "http://www.w3.org/Graphics/SVG/1.1/DTD/svg11.dtd">
<!-- Creator: CorelDRAW X6 -->
<svg xmlns="http://www.w3.org/2000/svg" xml:space="preserve" width="12.0968in" height="5.74829in" version="1.1" style="shape-rendering:geometricPrecision; text-rendering:geometricPrecision; image-rendering:optimizeQuality; fill-rule:evenodd; clip-rule:evenodd"
viewBox="0 0 12097 5748"
 xmlns:xlink="http://www.w3.org/1999/xlink">
 <defs>
  <style type="text/css">
   <![CDATA[
    .str0 {stroke:red;stroke-width:3}
    .str1 {stroke:red;stroke-width:222.22}
    .fil1 {fill:none}
    .fil0 {fill:red}
    .fil2 {fill:#FEFEFE;fill-rule:nonzero}
   ]]>
  </style>
 </defs>
 <g id="Layer_x0020_1">
  <metadata id="CorelCorpID_0Corel-Layer"/>
  <g id="_746172368">
   <path class="fil0 str0" d="M1793 1904c645,0 1167,522 1167,1167 0,645 -522,1167 -1167,1167 -645,0 -1167,-522 -1167,-1167 0,-645 522,-1167 1167,-1167z"/>
   <path class="fil0 str0" d="M4269 3100c645,0 1167,522 1167,1167 0,645 -522,1167 -1167,1167 -645,0 -1167,-522 -1167,-1167 0,-645 522,-1167 1167,-1167z"/>
   <path class="fil0 str0" d="M6831 2274c645,0 1167,522 1167,1167 0,645 -522,1167 -1167,1167 -645,0 -1167,-522 -1167,-1167 0,-645 522,-1167 1167,-1167z"/>
   <path class="fil0 str0" d="M9364 3413c645,0 1167,522 1167,1167 0,645 -522,1167 -1167,1167 -645,0 -1167,-522 -1167,-1167 0,-645 522,-1167 1167,-1167z"/>
   <path class="fil1 str1" d="M4184 111l0 2989m-2362 -2989l0 1829m-1822 -1829l12097 0m-2619 0l0 3302m-2419 -3302l0 2223"/>
   <path class="fil2" d="M1225 3295l389 -24c8,63 26,111 52,144 42,53 102,80 181,80 58,0 103,-14 135,-41 32,-27 48,-59 48,-95 0,-34 -15,-65 -45,-92 -30,-27 -100,-52 -209,-77 -180,-40 -307,-94 -384,-161 -77,-67 -116,-152 -116,-255 0,-68 20,-132 59,-192 39,-61 99,-108 178,-143 79,-35 188,-52 326,-52 169,0 298,31 387,95 89,63 142,163 159,301l-385 23c-10,-60 -32,-104 -64,-131 -33,-27 -78,-41 -136,-41 -48,0 -84,10 -108,30 -24,20 -36,45 -36,74 0,21 10,40 29,57 19,18 64,34 137,49 179,39 307,78 384,117 77,39 134,88 169,147 35,58 53,124 53,196 0,85 -23,163 -70,235 -47,72 -113,126 -197,163 -84,37 -190,56 -319,56 -225,0 -381,-43 -468,-130 -87,-87 -136,-197 -147,-330z"/>
   <path class="fil2" d="M4498 4711l-464 0 -67 218 -418 0 499 -1325 448 0 497 1325 -429 0 -66 -218zm-87 -287l-145 -476 -145 476 290 0z"/>
   <polygon class="fil2" points="6374,2779 6783,2779 6783,3778 7424,3778 7424,4104 6374,4104 "/>
   <polygon class="fil2" points="8874,3917 9969,3917 9969,4200 9284,4200 9284,4411 9919,4411 9919,4681 9284,4681 9284,4942 9990,4942 9990,5242 8874,5242 "/>
  </g>
 </g>
</svg>
